<?xml version="1.0" encoding="utf-8"?>
<!-- Generator: Adobe Illustrator 23.0.6, SVG Export Plug-In . SVG Version: 6.00 Build 0)  -->
<svg version="1.1" id="Ebene_1" xmlns="http://www.w3.org/2000/svg" xmlns:xlink="http://www.w3.org/1999/xlink" x="0px" y="0px"
	 viewBox="0 0 120.1 55.1" style="enable-background:new 0 0 120.1 55.1;" xml:space="preserve">
<style type="text/css">
	.st0{fill:#EE2228;}
</style>
<path class="st0" d="M59.6,55c-14,0-28-0.1-42,0.1c-4.1,0.1-7.4-1.8-10.5-3.7c-2.4-1.5-4.5-3.8-5.7-6.5C0.6,43.2,0,41.5,0,39.4
	c0.1-7.8,0.3-15.7,0-23.5c-0.1-3,0.9-5.5,2.4-7.5C6.3,3.3,11.5,0,18.3,0c27.8,0,55.6,0,83.5,0c7.7,0,15.1,5.1,17.8,12.1
	c0.4,1,0.4,2.2,0.4,3.3c0,8-0.1,16,0.1,24c0.1,2.8-1.1,6.4-2.2,8.4c-3.3,5.9-9.8,6.7-11.1,6.8c-1,0.1-2.7,0.3-3.8,0.3
	C88.6,55,74.1,55,59.6,55z M16.1,42.9c0-7.7,0-15.1,0-22.4c0-0.8-0.1-1.7,0-2.5c0.2-1.2,1-1.9,2.3-2c1.4-0.1,2.2,0.8,2.6,1.8
	c0.3,0.7,0.1,1.6,0.1,2.5c0,6.3,0,12.7,0,19c0,1.3,0.1,2.5,0.2,3.6c2.2,0,3.9,0,5.8,0c0-2.3,0-4.5,0-6.6c0-5.8,0-11.7,0-17.5
	c0-1.8,1.1-2.9,2.7-2.6c1.4,0.2,2.3,0.9,2.3,2.6c0,3.7,0,7.3,0,11c0,4.4,0,8.9,0,13.3c1.9,0,3.3,0,5,0c0-8.6,0-17.1,0-25.5
	c0-4.1-3.5-6.4-5.6-6.6c-2.2-0.2-5.2-0.5-7.3,1.2c-0.3,0.2-1.2,0.2-1.4,0c-1.7-1.6-5-1.3-6.2-1.2c-1.7,0.1-2.7,0.5-4,1.6
	c-1.5,1.3-2.5,3.3-2.5,5.6c0,8.3,0,16.6,0,25C12.2,42.9,14,42.9,16.1,42.9z M85.1,20.9c0-1.5,0-2.7,0-3.9c0-2.2-1.2-3.5-3.1-4.7
	c-2.8-1.8-5.9-1.6-8.9-1.2c-1.7,0.2-3.5,1.3-4.9,2.4c-0.7,0.5-1,2-1.1,3c-0.1,7.3,0,14.6,0,22c0,2.7,2,4.4,4,5.3
	c1.1,0.5,4.8,0.1,8,0.2c3.4,0.1,5.9-2.6,6-6c0.1-4.3,0-8.6,0-12.9c-3.5,0-6.6,0-10,0c0,1.9,0,3.7,0,5.4c0,0.1,0.2,0.2,0.4,0.4
	c1.1,0.1,2.2,0.1,3.6,0.2c0,1.7,0,3.4,0,5c0,1.4-0.2,2.9-3.5,2.9c-1.5,0-2.5-1-2.5-2.9c0-6.3,0-12.6,0-18.9c2.5,0,4.7,0,6.9,0
	c0.1,1.3,0.1,2.5,0.2,3.7C81.8,20.9,83.3,20.9,85.1,20.9z M56.1,43c1.5,0,2.5-0.1,3.5,0s1.5-0.1,1.5-1.3c0-8.3,0-16.6,0-24.9
	c0-2.1-1.1-3.1-2.7-4.3c-2.3-1.7-6.4-1.7-9.5-1.4c-3.6,0.4-5.8,3.5-5.8,7.1c0,7,0,14,0,20.9c0,1.3,0,2.5,0,3.7c2.3,0,4,0,6.1,0
	c0-4,0-8,0-11.7c2.5,0,4.6,0,6.8,0C56.1,35.1,56.1,38.9,56.1,43z M109.1,27.5c0-3.7,0-7.3,0.1-11c0-1.8-0.6-3.3-1.7-4.2
	c-1.4-1-2.9-1.3-4.8-1.3c-1.8,0-3.7,0-5.5,0c-4.1,0-6,1.8-6,5.5c0,7.3-0.1,14.6,0,22c0,1.1,0.6,2.6,1.4,3.3c1.1,1,2.6,1.9,4.1,2.1
	c2.3,0.3,4.6,0.2,7,0.1c1.8-0.1,3.1-0.5,4.5-2.1c1.1-1.3,1-2.6,1-3.8C109.1,34.5,109.1,31,109.1,27.5z"/>
<path class="st0" d="M56.1,24.9c-2.5,0-4.6,0-7,0c0-2.2-0.1-4.3,0-6.4c0.1-1.7,1-2.5,2.8-2.5c3.1-0.1,4.2,0.9,4.2,4.1
	C56.1,21.6,56.1,23,56.1,24.9z"/>
<path class="st0" d="M97.1,17.8c0-1,0.8-1.8,1.8-1.8c5.4,0,4.8-0.5,4.8,6.6c0,4.3,0,8.6,0,12.9c0,2.1-0.5,3.5-3,3.5
	c-0.9,0-1.8,0.2-2.7-0.6c-0.5-0.4-0.8-1.1-0.8-1.7L97.1,17.8L97.1,17.8z"/>
</svg>
